<svg width="800" height="600" xmlns="http://www.w3.org/2000/svg">

 <g>
  <title>Layer 1</title>
  <g>
   <path fill="#B6C7EA" d="m178.66,109.88l442.68,0c19.06,0 34.66,15.6 34.66,34.66l0,310.92c0,19.06 -15.6,34.66 -34.66,34.66l-442.68,0c-19.06,0 -34.66,-15.6 -34.66,-34.66l0,-310.92c0,-19.06 15.6,-34.66 34.66,-34.66zm173.92,264.36c5.76,5.04 6.34,13.81 1.3,19.57c-5.05,5.76 -13.81,6.35 -19.57,1.3l-52.73,-46.19c-5.76,-5.05 -6.35,-13.81 -1.3,-19.58c0.43,-0.49 0.89,-0.94 1.37,-1.36l52.66,-46.14c5.76,-5.04 14.52,-4.46 19.57,1.31c5.04,5.76 4.46,14.52 -1.3,19.57l-40.82,35.76l40.82,35.76zm113.11,20.87c-5.76,5.05 -14.52,4.46 -19.57,-1.3c-5.04,-5.76 -4.46,-14.53 1.3,-19.57l40.82,-35.76l-40.82,-35.76c-5.76,-5.05 -6.34,-13.81 -1.3,-19.57c5.05,-5.77 13.81,-6.35 19.57,-1.31l52.66,46.14c0.48,0.42 0.94,0.87 1.37,1.36c5.05,5.77 4.46,14.53 -1.3,19.58l-52.73,46.19zm-65.95,-124.31c1.74,-7.47 9.22,-12.12 16.69,-10.38c7.47,1.74 12.12,9.22 10.38,16.69l-30.13,129.04c-1.74,7.48 -9.22,12.13 -16.69,10.39c-7.47,-1.74 -12.12,-9.22 -10.38,-16.69l30.13,-129.05zm-233.71,-63.87l0,251.91a9.56,9.56 0 0 0 9.59,9.59l450.18,0a9.56,9.56 0 0 0 9.59,-9.59l0,-251.91l-469.36,0zm422.32,-58.09c9.46,0 17.12,7.67 17.12,17.12c0,9.46 -7.66,17.12 -17.12,17.12c-9.45,0 -17.12,-7.66 -17.12,-17.12c0,-9.45 7.67,-17.12 17.12,-17.12zm-116.03,0c9.46,0 17.12,7.67 17.12,17.12c0,9.46 -7.66,17.12 -17.12,17.12c-9.45,0 -17.11,-7.66 -17.11,-17.12c0,-9.45 7.66,-17.12 17.11,-17.12zm58.02,0c9.45,0 17.12,7.67 17.12,17.12c0,9.46 -7.67,17.12 -17.12,17.12c-9.45,0 -17.12,-7.66 -17.12,-17.12c0,-9.45 7.67,-17.12 17.12,-17.12z"/>
  </g>
 </g>
</svg>